<svg xmlns="http://www.w3.org/2000/svg" width="512" height="512" viewBox="0 0 512 512">
  <defs>
    <linearGradient id="g" x1="0" y1="0" x2="1" y2="1">
      <stop offset="0" stop-color="#667eea"/>
      <stop offset="1" stop-color="#764ba2"/>
    </linearGradient>
  </defs>
  <rect width="512" height="512" rx="96" fill="url(#g)"/>
  <g fill="none" stroke="#fff" stroke-width="36" stroke-linecap="round" stroke-linejoin="round">
    <path d="M216 296l-20 20a72 72 0 0 1-102 0 72 72 0 0 1 0-102l44-44a72 72 0 0 1 102 0"/>
    <path d="M296 216l20-20a72 72 0 0 1 102 0 72 72 0 0 1 0 102l-44 44a72 72 0 0 1-102 0"/>
    <path d="M220 292l72-72"/>
  </g>
</svg>
